<?xml version="1.0" standalone="no"?><!DOCTYPE svg PUBLIC "-//W3C//DTD SVG 1.1//EN" "http://www.w3.org/Graphics/SVG/1.1/DTD/svg11.dtd"><svg t="1676363351911" class="icon" viewBox="0 0 1024 1024" version="1.1" xmlns="http://www.w3.org/2000/svg" p-id="2202" xmlns:xlink="http://www.w3.org/1999/xlink" width="32" height="32"><path d="M792.47 543.91q2 139.98 137.97 207.97-29.99 85.98-71.99 143.97-27.99 42-44.99 63-17 21-48 41.99-31 21-62.99 21-33.99 2-81.99-19-48-21-87.99-21-42 0-90.99 20-48.99 20-78.98 22-30 2-62-20t-51.99-45.99q-20-24-48-64-45.99-67.98-75.99-154.97-29.99-86.99-30.99-186.97t42.99-173.97q32-57.99 88.99-92.99 56.99-34.99 122.98-34.99 27.99 0 61.98 11 34 11 62.99 22 29 11 45 11 12 0 80.99-25 68.99-24.99 114.98-20.99 121.98 4 187.97 101.98-111.98 71.99-109.98 193.97zM510.51 235.96q-12-81.99 53.99-157.97 28-32 70.99-53.99 42.99-22 80.99-24 10 87.99-53.99 163.97-28 34-69 55t-82.99 17z" fill="#ffffff" p-id="2203"></path></svg>